<svg width="67" height="58" viewBox="0 0 67 58" fill="none" xmlns="http://www.w3.org/2000/svg">
<path d="M60.5094 57.5527H6.49062C2.91816 57.5527 0 54.691 0 51.159V6.84102C0 3.30898 2.91816 0.447266 6.49062 0.447266H41.9404C42.9611 0.447266 43.7855 1.25937 43.7855 2.26484C43.7855 3.27031 42.9611 4.08242 41.9404 4.08242H6.49062C4.94648 4.08242 3.69023 5.31992 3.69023 6.84102V51.159C3.69023 52.6801 4.94648 53.9176 6.49062 53.9176H60.5094C62.0535 53.9176 63.3098 52.6801 63.3098 51.159V6.84102C63.3098 5.31992 62.0535 4.08242 60.5094 4.08242H52.5793C51.5586 4.08242 50.7342 3.27031 50.7342 2.26484C50.7342 1.25937 51.5586 0.447266 52.5793 0.447266H60.5094C64.0949 0.447266 67 3.32187 67 6.84102V51.159C67 54.691 64.0818 57.5527 60.5094 57.5527Z" fill="#2D527C"/>
<path d="M53.8748 49.5348H18.1371C17.1164 49.5348 16.292 48.7227 16.292 47.7172C16.292 46.7117 17.1164 45.8996 18.1371 45.8996H53.8748C54.5815 45.8996 55.1572 45.3324 55.1572 44.6363V13.3766C55.1572 12.6805 54.5815 12.1133 53.8748 12.1133H18.1371C17.1164 12.1133 16.292 11.3012 16.292 10.2957C16.292 9.29023 17.1164 8.47812 18.1371 8.47812H53.8748C56.6229 8.47812 58.8605 10.6824 58.8605 13.3894V44.6363C58.8605 47.3305 56.6229 49.5348 53.8748 49.5348Z" fill="#2D527C"/>
<path d="M9.98461 49.5348C8.96391 49.5348 8.1395 48.7227 8.1395 47.7172V10.2828C8.1395 9.27735 8.96391 8.46524 9.98461 8.46524C11.0053 8.46524 11.8297 9.27735 11.8297 10.2828V47.7172C11.8428 48.7227 11.0053 49.5348 9.98461 49.5348Z" fill="#2D527C"/>
</svg>
